<mxfile host="65bd71144e">
    <diagram id="3tGo-2ero8lKGBgUv5UY" name="Page-1">
        <mxGraphModel dx="821" dy="467" grid="1" gridSize="10" guides="1" tooltips="1" connect="1" arrows="1" fold="1" page="1" pageScale="1" pageWidth="850" pageHeight="1100" math="0" shadow="0">
            <root>
                <mxCell id="0"/>
                <mxCell id="1" parent="0"/>
                <mxCell id="2" value="security service" style="shape=umlLifeline;perimeter=lifelinePerimeter;whiteSpace=wrap;html=1;container=1;collapsible=0;recursiveResize=0;outlineConnect=0;" vertex="1" parent="1">
                    <mxGeometry x="310" y="90" width="100" height="390" as="geometry"/>
                </mxCell>
                <mxCell id="15" value="" style="html=1;points=[];perimeter=orthogonalPerimeter;" vertex="1" parent="2">
                    <mxGeometry x="40" y="70" width="10" height="80" as="geometry"/>
                </mxCell>
                <mxCell id="23" value="" style="html=1;points=[];perimeter=orthogonalPerimeter;" vertex="1" parent="2">
                    <mxGeometry x="40" y="260" width="10" height="80" as="geometry"/>
                </mxCell>
                <mxCell id="3" value="appkube-cmdb-service" style="shape=umlLifeline;perimeter=lifelinePerimeter;whiteSpace=wrap;html=1;container=1;collapsible=0;recursiveResize=0;outlineConnect=0;lifelineDashed=0;" vertex="1" parent="1">
                    <mxGeometry x="560" y="90" width="130" height="390" as="geometry"/>
                </mxCell>
                <mxCell id="4" value="" style="shape=umlLifeline;participant=umlActor;perimeter=lifelinePerimeter;whiteSpace=wrap;html=1;container=1;collapsible=0;recursiveResize=0;verticalAlign=top;spacingTop=36;outlineConnect=0;" vertex="1" parent="1">
                    <mxGeometry x="120" y="90" width="20" height="390" as="geometry"/>
                </mxCell>
                <mxCell id="14" value="security service DB" style="shape=umlLifeline;perimeter=lifelinePerimeter;whiteSpace=wrap;html=1;container=1;collapsible=0;recursiveResize=0;outlineConnect=0;" vertex="1" parent="1">
                    <mxGeometry x="440" y="90" width="100" height="390" as="geometry"/>
                </mxCell>
                <mxCell id="27" value="" style="html=1;points=[];perimeter=orthogonalPerimeter;" vertex="1" parent="14">
                    <mxGeometry x="40" y="90" width="10" height="30" as="geometry"/>
                </mxCell>
                <mxCell id="30" value="" style="html=1;points=[];perimeter=orthogonalPerimeter;" vertex="1" parent="14">
                    <mxGeometry x="40" y="280" width="10" height="40" as="geometry"/>
                </mxCell>
                <mxCell id="16" value="dispatch" style="html=1;verticalAlign=bottom;endArrow=block;entryX=0;entryY=0;" edge="1" target="15" parent="1" source="4">
                    <mxGeometry x="0.1837" y="10" relative="1" as="geometry">
                        <mxPoint x="280" y="160" as="sourcePoint"/>
                        <mxPoint as="offset"/>
                    </mxGeometry>
                </mxCell>
                <mxCell id="17" value="return" style="html=1;verticalAlign=bottom;endArrow=open;dashed=1;endSize=8;exitX=0;exitY=0.95;" edge="1" source="15" parent="1" target="4">
                    <mxGeometry x="-0.0023" relative="1" as="geometry">
                        <mxPoint x="280" y="236" as="targetPoint"/>
                        <Array as="points">
                            <mxPoint x="220" y="236"/>
                        </Array>
                        <mxPoint as="offset"/>
                    </mxGeometry>
                </mxCell>
                <mxCell id="19" value="Authentication Response" style="edgeLabel;html=1;align=center;verticalAlign=middle;resizable=0;points=[];" vertex="1" connectable="0" parent="17">
                    <mxGeometry x="-0.5102" y="2" relative="1" as="geometry">
                        <mxPoint x="-66" y="12" as="offset"/>
                    </mxGeometry>
                </mxCell>
                <mxCell id="18" value="Login Request" style="text;html=1;align=center;verticalAlign=middle;resizable=0;points=[];autosize=1;strokeColor=none;fillColor=none;" vertex="1" parent="1">
                    <mxGeometry x="230" y="160" width="100" height="30" as="geometry"/>
                </mxCell>
                <mxCell id="25" value="return" style="html=1;verticalAlign=bottom;endArrow=open;dashed=1;endSize=8;exitX=0;exitY=0.95;" edge="1" source="23" parent="1" target="4">
                    <mxGeometry relative="1" as="geometry">
                        <mxPoint x="280" y="406" as="targetPoint"/>
                    </mxGeometry>
                </mxCell>
                <mxCell id="24" value="dispatch" style="html=1;verticalAlign=bottom;endArrow=block;entryX=0;entryY=0;" edge="1" target="23" parent="1" source="4">
                    <mxGeometry relative="1" as="geometry">
                        <mxPoint x="280" y="330" as="sourcePoint"/>
                        <Array as="points">
                            <mxPoint x="180" y="350"/>
                        </Array>
                    </mxGeometry>
                </mxCell>
                <mxCell id="26" value="Create Organization Request" style="edgeLabel;html=1;align=center;verticalAlign=middle;resizable=0;points=[];" vertex="1" connectable="0" parent="24">
                    <mxGeometry x="0.5918" y="-1" relative="1" as="geometry">
                        <mxPoint x="-74" y="9" as="offset"/>
                    </mxGeometry>
                </mxCell>
                <mxCell id="28" value="dispatch" style="html=1;verticalAlign=bottom;endArrow=block;entryX=0;entryY=0;" edge="1" target="27" parent="1" source="2">
                    <mxGeometry relative="1" as="geometry">
                        <mxPoint x="410" y="160" as="sourcePoint"/>
                        <Array as="points">
                            <mxPoint x="410" y="180"/>
                        </Array>
                    </mxGeometry>
                </mxCell>
                <mxCell id="29" value="return" style="html=1;verticalAlign=bottom;endArrow=open;dashed=1;endSize=8;exitX=0;exitY=0.95;" edge="1" source="27" parent="1" target="2">
                    <mxGeometry relative="1" as="geometry">
                        <mxPoint x="410" y="236" as="targetPoint"/>
                        <Array as="points">
                            <mxPoint x="390" y="210"/>
                        </Array>
                    </mxGeometry>
                </mxCell>
                <mxCell id="31" value="dispatch" style="html=1;verticalAlign=bottom;endArrow=block;entryX=0;entryY=0;" edge="1" target="30" parent="1" source="2">
                    <mxGeometry relative="1" as="geometry">
                        <mxPoint x="410" y="350" as="sourcePoint"/>
                        <Array as="points">
                            <mxPoint x="400" y="370"/>
                        </Array>
                    </mxGeometry>
                </mxCell>
                <mxCell id="32" value="return" style="html=1;verticalAlign=bottom;endArrow=open;dashed=1;endSize=8;exitX=0;exitY=0.95;" edge="1" source="30" parent="1" target="2">
                    <mxGeometry relative="1" as="geometry">
                        <mxPoint x="410" y="426" as="targetPoint"/>
                        <Array as="points">
                            <mxPoint x="410" y="410"/>
                        </Array>
                    </mxGeometry>
                </mxCell>
                <mxCell id="33" value="dispatch" style="html=1;verticalAlign=bottom;endArrow=block;" edge="1" parent="1" source="2" target="3">
                    <mxGeometry x="0.4377" y="10" width="80" relative="1" as="geometry">
                        <mxPoint x="380" y="300" as="sourcePoint"/>
                        <mxPoint x="460" y="300" as="targetPoint"/>
                        <Array as="points">
                            <mxPoint x="410" y="350"/>
                        </Array>
                        <mxPoint x="1" as="offset"/>
                    </mxGeometry>
                </mxCell>
                <mxCell id="34" value="Update CMDB" style="edgeLabel;html=1;align=center;verticalAlign=middle;resizable=0;points=[];" vertex="1" connectable="0" parent="33">
                    <mxGeometry x="0.3019" y="-3" relative="1" as="geometry">
                        <mxPoint x="28" y="7" as="offset"/>
                    </mxGeometry>
                </mxCell>
            </root>
        </mxGraphModel>
    </diagram>
</mxfile>